%TF.GenerationSoftware,KiCad,Pcbnew,8.0.3*%
%TF.CreationDate,2024-10-16T20:56:56-05:00*%
%TF.ProjectId,BB-STM32 Dev Board,42422d53-544d-4333-9220-44657620426f,0*%
%TF.SameCoordinates,Original*%
%TF.FileFunction,Drillmap*%
%TF.FilePolarity,Positive*%
%FSLAX45Y45*%
G04 Gerber Fmt 4.5, Leading zero omitted, Abs format (unit mm)*
G04 Created by KiCad (PCBNEW 8.0.3) date 2024-10-16 20:56:56*
%MOMM*%
%LPD*%
G01*
G04 APERTURE LIST*
%ADD10C,0.050000*%
%ADD11C,0.200000*%
G04 APERTURE END LIST*
D10*
X11900000Y-12350000D02*
G75*
G02*
X11450000Y-11900000I0J450000D01*
G01*
X16250000Y-11900000D02*
G75*
G02*
X15800000Y-12350000I-450000J0D01*
G01*
X15800000Y-7250000D02*
G75*
G02*
X16250000Y-7700000I0J-450000D01*
G01*
X11450000Y-7700000D02*
G75*
G02*
X11900000Y-7250000I450000J0D01*
G01*
X16250000Y-11900000D02*
X16250000Y-7700000D01*
X11450000Y-7700000D02*
X11450000Y-11900000D01*
X15800000Y-7250000D02*
X11900000Y-7250000D01*
X11900000Y-12350000D02*
X15800000Y-12350000D01*
D11*
X11708277Y-12663984D02*
X11708277Y-12463984D01*
X11708277Y-12463984D02*
X11755896Y-12463984D01*
X11755896Y-12463984D02*
X11784467Y-12473508D01*
X11784467Y-12473508D02*
X11803515Y-12492555D01*
X11803515Y-12492555D02*
X11813039Y-12511603D01*
X11813039Y-12511603D02*
X11822562Y-12549698D01*
X11822562Y-12549698D02*
X11822562Y-12578269D01*
X11822562Y-12578269D02*
X11813039Y-12616365D01*
X11813039Y-12616365D02*
X11803515Y-12635412D01*
X11803515Y-12635412D02*
X11784467Y-12654460D01*
X11784467Y-12654460D02*
X11755896Y-12663984D01*
X11755896Y-12663984D02*
X11708277Y-12663984D01*
X11908277Y-12663984D02*
X11908277Y-12530650D01*
X11908277Y-12568746D02*
X11917801Y-12549698D01*
X11917801Y-12549698D02*
X11927324Y-12540174D01*
X11927324Y-12540174D02*
X11946372Y-12530650D01*
X11946372Y-12530650D02*
X11965420Y-12530650D01*
X12032086Y-12663984D02*
X12032086Y-12530650D01*
X12032086Y-12463984D02*
X12022562Y-12473508D01*
X12022562Y-12473508D02*
X12032086Y-12483031D01*
X12032086Y-12483031D02*
X12041610Y-12473508D01*
X12041610Y-12473508D02*
X12032086Y-12463984D01*
X12032086Y-12463984D02*
X12032086Y-12483031D01*
X12155896Y-12663984D02*
X12136848Y-12654460D01*
X12136848Y-12654460D02*
X12127324Y-12635412D01*
X12127324Y-12635412D02*
X12127324Y-12463984D01*
X12260658Y-12663984D02*
X12241610Y-12654460D01*
X12241610Y-12654460D02*
X12232086Y-12635412D01*
X12232086Y-12635412D02*
X12232086Y-12463984D01*
X12489229Y-12663984D02*
X12489229Y-12463984D01*
X12489229Y-12463984D02*
X12555896Y-12606841D01*
X12555896Y-12606841D02*
X12622562Y-12463984D01*
X12622562Y-12463984D02*
X12622562Y-12663984D01*
X12803515Y-12663984D02*
X12803515Y-12559222D01*
X12803515Y-12559222D02*
X12793991Y-12540174D01*
X12793991Y-12540174D02*
X12774943Y-12530650D01*
X12774943Y-12530650D02*
X12736848Y-12530650D01*
X12736848Y-12530650D02*
X12717801Y-12540174D01*
X12803515Y-12654460D02*
X12784467Y-12663984D01*
X12784467Y-12663984D02*
X12736848Y-12663984D01*
X12736848Y-12663984D02*
X12717801Y-12654460D01*
X12717801Y-12654460D02*
X12708277Y-12635412D01*
X12708277Y-12635412D02*
X12708277Y-12616365D01*
X12708277Y-12616365D02*
X12717801Y-12597317D01*
X12717801Y-12597317D02*
X12736848Y-12587793D01*
X12736848Y-12587793D02*
X12784467Y-12587793D01*
X12784467Y-12587793D02*
X12803515Y-12578269D01*
X12898753Y-12530650D02*
X12898753Y-12730650D01*
X12898753Y-12540174D02*
X12917801Y-12530650D01*
X12917801Y-12530650D02*
X12955896Y-12530650D01*
X12955896Y-12530650D02*
X12974943Y-12540174D01*
X12974943Y-12540174D02*
X12984467Y-12549698D01*
X12984467Y-12549698D02*
X12993991Y-12568746D01*
X12993991Y-12568746D02*
X12993991Y-12625888D01*
X12993991Y-12625888D02*
X12984467Y-12644936D01*
X12984467Y-12644936D02*
X12974943Y-12654460D01*
X12974943Y-12654460D02*
X12955896Y-12663984D01*
X12955896Y-12663984D02*
X12917801Y-12663984D01*
X12917801Y-12663984D02*
X12898753Y-12654460D01*
X13079705Y-12644936D02*
X13089229Y-12654460D01*
X13089229Y-12654460D02*
X13079705Y-12663984D01*
X13079705Y-12663984D02*
X13070182Y-12654460D01*
X13070182Y-12654460D02*
X13079705Y-12644936D01*
X13079705Y-12644936D02*
X13079705Y-12663984D01*
X13079705Y-12540174D02*
X13089229Y-12549698D01*
X13089229Y-12549698D02*
X13079705Y-12559222D01*
X13079705Y-12559222D02*
X13070182Y-12549698D01*
X13070182Y-12549698D02*
X13079705Y-12540174D01*
X13079705Y-12540174D02*
X13079705Y-12559222D01*
M02*
