%TF.GenerationSoftware,KiCad,Pcbnew,8.0.3*%
%TF.CreationDate,2024-10-16T20:56:53-05:00*%
%TF.ProjectId,BB-STM32 Dev Board,42422d53-544d-4333-9220-44657620426f,0*%
%TF.SameCoordinates,Original*%
%TF.FileFunction,Soldermask,Top*%
%TF.FilePolarity,Negative*%
%FSLAX46Y46*%
G04 Gerber Fmt 4.6, Leading zero omitted, Abs format (unit mm)*
G04 Created by KiCad (PCBNEW 8.0.3) date 2024-10-16 20:56:53*
%MOMM*%
%LPD*%
G01*
G04 APERTURE LIST*
G04 Aperture macros list*
%AMRoundRect*
0 Rectangle with rounded corners*
0 $1 Rounding radius*
0 $2 $3 $4 $5 $6 $7 $8 $9 X,Y pos of 4 corners*
0 Add a 4 corners polygon primitive as box body*
4,1,4,$2,$3,$4,$5,$6,$7,$8,$9,$2,$3,0*
0 Add four circle primitives for the rounded corners*
1,1,$1+$1,$2,$3*
1,1,$1+$1,$4,$5*
1,1,$1+$1,$6,$7*
1,1,$1+$1,$8,$9*
0 Add four rect primitives between the rounded corners*
20,1,$1+$1,$2,$3,$4,$5,0*
20,1,$1+$1,$4,$5,$6,$7,0*
20,1,$1+$1,$6,$7,$8,$9,0*
20,1,$1+$1,$8,$9,$2,$3,0*%
%AMFreePoly0*
4,1,19,0.500000,-0.750000,0.000000,-0.750000,0.000000,-0.744911,-0.071157,-0.744911,-0.207708,-0.704816,-0.327430,-0.627875,-0.420627,-0.520320,-0.479746,-0.390866,-0.500000,-0.250000,-0.500000,0.250000,-0.479746,0.390866,-0.420627,0.520320,-0.327430,0.627875,-0.207708,0.704816,-0.071157,0.744911,0.000000,0.744911,0.000000,0.750000,0.500000,0.750000,0.500000,-0.750000,0.500000,-0.750000,
$1*%
%AMFreePoly1*
4,1,19,0.000000,0.744911,0.071157,0.744911,0.207708,0.704816,0.327430,0.627875,0.420627,0.520320,0.479746,0.390866,0.500000,0.250000,0.500000,-0.250000,0.479746,-0.390866,0.420627,-0.520320,0.327430,-0.627875,0.207708,-0.704816,0.071157,-0.744911,0.000000,-0.744911,0.000000,-0.750000,-0.500000,-0.750000,-0.500000,0.750000,0.000000,0.750000,0.000000,0.744911,0.000000,0.744911,
$1*%
G04 Aperture macros list end*
%ADD10R,1.700000X1.700000*%
%ADD11O,1.700000X1.700000*%
%ADD12RoundRect,0.062500X-0.062500X0.337500X-0.062500X-0.337500X0.062500X-0.337500X0.062500X0.337500X0*%
%ADD13R,1.400000X1.700000*%
%ADD14R,1.500000X2.400000*%
%ADD15RoundRect,0.250000X-0.337500X-0.475000X0.337500X-0.475000X0.337500X0.475000X-0.337500X0.475000X0*%
%ADD16RoundRect,0.099250X-0.727750X-0.297750X0.727750X-0.297750X0.727750X0.297750X-0.727750X0.297750X0*%
%ADD17C,2.280000*%
%ADD18C,2.850000*%
%ADD19R,0.300000X1.100000*%
%ADD20R,0.600000X1.100000*%
%ADD21R,0.300000X1.000000*%
%ADD22R,1.000000X0.300000*%
%ADD23R,3.300000X3.300000*%
%ADD24O,1.500000X2.500000*%
%ADD25R,1.500000X2.500000*%
%ADD26O,2.200000X3.500000*%
%ADD27RoundRect,0.160000X0.160000X-0.197500X0.160000X0.197500X-0.160000X0.197500X-0.160000X-0.197500X0*%
%ADD28RoundRect,0.225000X-0.375000X0.225000X-0.375000X-0.225000X0.375000X-0.225000X0.375000X0.225000X0*%
%ADD29RoundRect,0.225000X-0.225000X-0.375000X0.225000X-0.375000X0.225000X0.375000X-0.225000X0.375000X0*%
%ADD30RoundRect,0.160000X-0.160000X0.197500X-0.160000X-0.197500X0.160000X-0.197500X0.160000X0.197500X0*%
%ADD31R,1.300000X1.550000*%
%ADD32RoundRect,0.160000X-0.160000X0.222500X-0.160000X-0.222500X0.160000X-0.222500X0.160000X0.222500X0*%
%ADD33RoundRect,0.155000X-0.212500X-0.155000X0.212500X-0.155000X0.212500X0.155000X-0.212500X0.155000X0*%
%ADD34RoundRect,0.160000X0.160000X-0.222500X0.160000X0.222500X-0.160000X0.222500X-0.160000X-0.222500X0*%
%ADD35RoundRect,0.200000X0.200000X0.600000X-0.200000X0.600000X-0.200000X-0.600000X0.200000X-0.600000X0*%
%ADD36RoundRect,0.250001X0.799999X1.249999X-0.799999X1.249999X-0.799999X-1.249999X0.799999X-1.249999X0*%
%ADD37C,2.000000*%
%ADD38RoundRect,0.155000X0.155000X-0.212500X0.155000X0.212500X-0.155000X0.212500X-0.155000X-0.212500X0*%
%ADD39RoundRect,0.155000X-0.155000X0.212500X-0.155000X-0.212500X0.155000X-0.212500X0.155000X0.212500X0*%
%ADD40C,3.600000*%
%ADD41C,6.400000*%
%ADD42RoundRect,0.160000X-0.197500X-0.160000X0.197500X-0.160000X0.197500X0.160000X-0.197500X0.160000X0*%
%ADD43FreePoly0,270.000000*%
%ADD44FreePoly1,270.000000*%
%ADD45RoundRect,0.250000X-0.475000X0.337500X-0.475000X-0.337500X0.475000X-0.337500X0.475000X0.337500X0*%
G04 APERTURE END LIST*
D10*
%TO.C,J9*%
X125300000Y-83560000D03*
D11*
X125300000Y-86100000D03*
X125300000Y-88640000D03*
X125300000Y-91180000D03*
X125300000Y-93720000D03*
X125300000Y-96260000D03*
X125300000Y-98800000D03*
X125300000Y-101340000D03*
X125300000Y-103880000D03*
X125300000Y-106420000D03*
X125300000Y-108960000D03*
X125300000Y-111500000D03*
%TD*%
D10*
%TO.C,J8*%
X150700000Y-83560000D03*
D11*
X150700000Y-86100000D03*
X150700000Y-88640000D03*
X150700000Y-91180000D03*
X150700000Y-93720000D03*
X150700000Y-96260000D03*
X150700000Y-98800000D03*
X150700000Y-101340000D03*
X150700000Y-103880000D03*
X150700000Y-106420000D03*
X150700000Y-108960000D03*
X150700000Y-111500000D03*
%TD*%
D12*
%TO.C,U1*%
X132750000Y-86550000D03*
X132250000Y-86550000D03*
X131750000Y-86550000D03*
X131250000Y-86550000D03*
X131250000Y-89450000D03*
X131750000Y-89450000D03*
X132250000Y-89450000D03*
X132750000Y-89450000D03*
D13*
X132000000Y-88000000D03*
%TD*%
D14*
%TO.C,L1*%
X139650000Y-89500000D03*
X143350000Y-89500000D03*
%TD*%
D15*
%TO.C,C13*%
X134462500Y-87000000D03*
X136537500Y-87000000D03*
%TD*%
%TO.C,C12*%
X131712500Y-84750000D03*
X133787500Y-84750000D03*
%TD*%
D16*
%TO.C,U2*%
X141000000Y-84050000D03*
X141000000Y-85000000D03*
X141000000Y-85950000D03*
X143310000Y-85950000D03*
X143310000Y-85000000D03*
X143310000Y-84050000D03*
%TD*%
D17*
%TO.C,J1*%
X143620000Y-117150000D03*
D18*
X143620000Y-121150000D03*
X132380000Y-121150000D03*
D17*
X132380000Y-117150000D03*
D19*
X136250000Y-116000000D03*
X137250000Y-116000000D03*
X138750000Y-116000000D03*
X139750000Y-116000000D03*
D20*
X141200000Y-116000000D03*
X140400000Y-116000000D03*
D19*
X139250000Y-116000000D03*
X138250000Y-116000000D03*
X137750000Y-116000000D03*
X136750000Y-116000000D03*
D20*
X135600000Y-116000000D03*
X134800000Y-116000000D03*
%TD*%
D21*
%TO.C,IC1*%
X138000000Y-106125000D03*
X137500000Y-106125000D03*
X137000000Y-106125000D03*
X136500000Y-106125000D03*
X136000000Y-106125000D03*
X135500000Y-106125000D03*
X135000000Y-106125000D03*
D22*
X134100000Y-107025000D03*
X134100000Y-107525000D03*
X134100000Y-108025000D03*
X134100000Y-108525000D03*
X134100000Y-109025000D03*
X134100000Y-109525000D03*
X134100000Y-110025000D03*
D21*
X135000000Y-110925000D03*
X135500000Y-110925000D03*
X136000000Y-110925000D03*
X136500000Y-110925000D03*
X137000000Y-110925000D03*
X137500000Y-110925000D03*
X138000000Y-110925000D03*
D22*
X138900000Y-110025000D03*
X138900000Y-109525000D03*
X138900000Y-109025000D03*
X138900000Y-108525000D03*
X138900000Y-108025000D03*
X138900000Y-107525000D03*
X138900000Y-107025000D03*
D23*
X136500000Y-108525000D03*
%TD*%
D24*
%TO.C,SW4*%
X146500000Y-75250000D03*
X148500000Y-75250000D03*
D25*
X150500000Y-75250000D03*
D26*
X144400000Y-75250000D03*
X152600000Y-75250000D03*
%TD*%
D27*
%TO.C,R21*%
X148000000Y-99347500D03*
X148000000Y-98152500D03*
%TD*%
%TO.C,R20*%
X148000000Y-96847500D03*
X148000000Y-95652500D03*
%TD*%
D28*
%TO.C,D8*%
X128500000Y-81850000D03*
X128500000Y-85150000D03*
%TD*%
%TO.C,D7*%
X140500707Y-98450707D03*
X140500707Y-101750707D03*
%TD*%
D29*
%TO.C,D4*%
X133100000Y-82000000D03*
X136400000Y-82000000D03*
%TD*%
D30*
%TO.C,R5*%
X137500000Y-112652500D03*
X137500000Y-113847500D03*
%TD*%
D31*
%TO.C,SW1*%
X158750000Y-105025000D03*
X158750000Y-112975000D03*
X154250000Y-105025000D03*
X154250000Y-112975000D03*
%TD*%
D32*
%TO.C,D6*%
X129150000Y-89852500D03*
X129150000Y-90997500D03*
%TD*%
D27*
%TO.C,R8*%
X136500000Y-104347500D03*
X136500000Y-103152500D03*
%TD*%
%TO.C,R12*%
X145000000Y-85347500D03*
X145000000Y-84152500D03*
%TD*%
D33*
%TO.C,C6*%
X141615000Y-111025000D03*
X142750000Y-111025000D03*
%TD*%
%TO.C,C1*%
X141615000Y-108025000D03*
X142750000Y-108025000D03*
%TD*%
D31*
%TO.C,SW2*%
X158750000Y-82025000D03*
X158750000Y-89975000D03*
X154250000Y-82025000D03*
X154250000Y-89975000D03*
%TD*%
D34*
%TO.C,D3*%
X145250000Y-93572500D03*
X145250000Y-92427500D03*
%TD*%
D35*
%TO.C,J6*%
X128625000Y-77900000D03*
X127375000Y-77900000D03*
D36*
X131175000Y-75000000D03*
X124825000Y-75000000D03*
%TD*%
D37*
%TO.C,TP1*%
X151750000Y-119000000D03*
%TD*%
D38*
%TO.C,C3*%
X134000000Y-103067500D03*
X134000000Y-101932500D03*
%TD*%
D34*
%TO.C,D5*%
X130150000Y-90997500D03*
X130150000Y-89852500D03*
%TD*%
D27*
%TO.C,R7*%
X137500000Y-104347500D03*
X137500000Y-103152500D03*
%TD*%
D39*
%TO.C,C7*%
X139250000Y-84682500D03*
X139250000Y-85817500D03*
%TD*%
D30*
%TO.C,R10*%
X148000000Y-118152500D03*
X148000000Y-119347500D03*
%TD*%
D27*
%TO.C,R17*%
X129150000Y-88522500D03*
X129150000Y-87327500D03*
%TD*%
D40*
%TO.C,H2*%
X158000000Y-77000000D03*
D41*
X158000000Y-77000000D03*
%TD*%
D42*
%TO.C,R19*%
X134052500Y-94925000D03*
X135247500Y-94925000D03*
%TD*%
%TO.C,R18*%
X134052500Y-89925000D03*
X135247500Y-89925000D03*
%TD*%
D10*
%TO.C,J2*%
X120475000Y-112160000D03*
D11*
X120475000Y-109620000D03*
X120475000Y-107080000D03*
X120475000Y-104540000D03*
X120475000Y-102000000D03*
X120475000Y-99460000D03*
%TD*%
D30*
%TO.C,R4*%
X138500000Y-112652500D03*
X138500000Y-113847500D03*
%TD*%
D27*
%TO.C,R16*%
X130150000Y-88522500D03*
X130150000Y-87327500D03*
%TD*%
D40*
%TO.C,H3*%
X119000000Y-119000000D03*
D41*
X119000000Y-119000000D03*
%TD*%
D35*
%TO.C,J7*%
X138375000Y-77900000D03*
X137125000Y-77900000D03*
D36*
X140925000Y-75000000D03*
X134575000Y-75000000D03*
%TD*%
D33*
%TO.C,C5*%
X141615000Y-110025000D03*
X142750000Y-110025000D03*
%TD*%
%TO.C,C2*%
X141615000Y-109025000D03*
X142750000Y-109025000D03*
%TD*%
D11*
%TO.C,J5*%
X157025000Y-101320000D03*
X157025000Y-98780000D03*
X157025000Y-96240000D03*
D10*
X157025000Y-93700000D03*
%TD*%
D30*
%TO.C,R11*%
X146000000Y-84152500D03*
X146000000Y-85347500D03*
%TD*%
D27*
%TO.C,R15*%
X146250000Y-93597500D03*
X146250000Y-92402500D03*
%TD*%
D40*
%TO.C,H4*%
X158000000Y-119000000D03*
D41*
X158000000Y-119000000D03*
%TD*%
D27*
%TO.C,R9*%
X129000000Y-119347500D03*
X129000000Y-118152500D03*
%TD*%
D43*
%TO.C,JP1*%
X134150000Y-91775000D03*
D44*
X134150000Y-93075000D03*
%TD*%
D34*
%TO.C,D1*%
X128000000Y-119322500D03*
X128000000Y-118177500D03*
%TD*%
D40*
%TO.C,H1*%
X119000000Y-77000000D03*
D41*
X119000000Y-77000000D03*
%TD*%
D27*
%TO.C,R6*%
X138500000Y-104347500D03*
X138500000Y-103152500D03*
%TD*%
D38*
%TO.C,C4*%
X135000000Y-103067500D03*
X135000000Y-101932500D03*
%TD*%
D10*
%TO.C,J3*%
X120500000Y-82800000D03*
D11*
X120500000Y-85340000D03*
X120500000Y-87880000D03*
X120500000Y-90420000D03*
X120500000Y-92960000D03*
X120500000Y-95500000D03*
%TD*%
D34*
%TO.C,D2*%
X147000000Y-119322500D03*
X147000000Y-118177500D03*
%TD*%
D42*
%TO.C,R1*%
X135152500Y-113750000D03*
X136347500Y-113750000D03*
%TD*%
D27*
%TO.C,R2*%
X140500000Y-113597500D03*
X140500000Y-112402500D03*
%TD*%
D30*
%TO.C,R3*%
X140500000Y-104401500D03*
X140500000Y-105596500D03*
%TD*%
D45*
%TO.C,C8*%
X145750000Y-87212500D03*
X145750000Y-89287500D03*
%TD*%
M02*
