M48
; DRILL file {KiCad 8.0.3} date 2024-10-16T20:56:56-0500
; FORMAT={-:-/ absolute / inch / decimal}
; #@! TF.CreationDate,2024-10-16T20:56:56-05:00
; #@! TF.GenerationSoftware,Kicad,Pcbnew,8.0.3
; #@! TF.FileFunction,Plated,1,2,PTH
FMAT,2
INCH
; #@! TA.AperFunction,Plated,PTH,ViaDrill
T1C0.0118
; #@! TA.AperFunction,Plated,PTH,ComponentDrill
T2C0.0354
; #@! TA.AperFunction,Plated,PTH,ComponentDrill
T3C0.0394
; #@! TA.AperFunction,Plated,PTH,ComponentDrill
T4C0.0591
; #@! TA.AperFunction,Plated,PTH,ComponentDrill
T5C0.0598
; #@! TA.AperFunction,Plated,PTH,ComponentDrill
T6C0.0748
; #@! TA.AperFunction,Plated,PTH,ComponentDrill
T7C0.1260
%
G90
G05
T1
X4.8622Y-3.7205
X4.9803Y-3.4154
X4.9902Y-3.3071
X4.9902Y-3.9961
X5.0098Y-4.0846
X5.0394Y-3.7402
X5.0394Y-4.5571
X5.0689Y-4.065
X5.1083Y-4.124
X5.1093Y-3.7707
X5.1378Y-3.189
X5.1378Y-4.0748
X5.1378Y-4.2421
X5.1772Y-3.9961
X5.2067Y-4.2224
X5.2362Y-3.2874
X5.2362Y-4.3012
X5.2461Y-4.1732
X5.2854Y-4.1535
X5.3051Y-3.5728
X5.315Y-4.124
X5.3346Y-4.2323
X5.3346Y-4.311
X5.374Y-4.2717
X5.4134Y-4.311
X5.4232Y-3.1299
X5.4601Y-4.3586
X5.4626Y-3.6417
X5.4921Y-4.4685
X5.5077Y-4.2841
X5.5118Y-3.2677
X5.5118Y-3.4252
X5.5118Y-4.3406
X5.5315Y-4.065
X5.5315Y-4.2028
X5.5315Y-4.2558
X5.5807Y-3.0669
X5.5906Y-4.4094
X5.6004Y-3.4252
X5.6398Y-3.2579
X5.6693Y-3.622
X5.6791Y-3.1004
X5.6988Y-3.4744
X5.6991Y-4.3704
X5.7874Y-3.2579
X5.8071Y-2.8937
X5.8126Y-3.0676
X5.876Y-2.8937
X6.0335Y-4.1929
X6.0433Y-3.3071
X6.063Y-3.6614
X6.0728Y-2.8937
T2
X5.7677Y-2.9626
X5.8465Y-2.9626
X5.9252Y-2.9626
T3
X4.7431Y-3.9157
X4.7431Y-4.0157
X4.7431Y-4.1157
X4.7431Y-4.2157
X4.7431Y-4.3157
X4.7431Y-4.4157
X4.7441Y-3.2598
X4.7441Y-3.3598
X4.7441Y-3.4598
X4.7441Y-3.5598
X4.7441Y-3.6598
X4.7441Y-3.7598
X4.9331Y-3.2898
X4.9331Y-3.3898
X4.9331Y-3.4898
X4.9331Y-3.5898
X4.9331Y-3.6898
X4.9331Y-3.7898
X4.9331Y-3.8898
X4.9331Y-3.9898
X4.9331Y-4.0898
X4.9331Y-4.1898
X4.9331Y-4.2898
X4.9331Y-4.3898
X5.9331Y-3.2898
X5.9331Y-3.3898
X5.9331Y-3.4898
X5.9331Y-3.5898
X5.9331Y-3.6898
X5.9331Y-3.7898
X5.9331Y-3.8898
X5.9331Y-3.9898
X5.9331Y-4.0898
X5.9331Y-4.1898
X5.9331Y-4.2898
X5.9331Y-4.3898
X5.9744Y-4.685
X6.1821Y-3.689
X6.1821Y-3.789
X6.1821Y-3.889
X6.1821Y-3.989
T4
X5.685Y-2.9626
X6.0079Y-2.9626
T5
X5.2118Y-4.6122
X5.6543Y-4.6122
T6
X5.2118Y-4.7697
X5.6543Y-4.7697
T7
X4.685Y-3.0315
X4.685Y-4.685
X6.2205Y-3.0315
X6.2205Y-4.685
M30
